# xmcd
#
# Track frame offsets: 
#        150
#        12946
#        25884
#        37935
#        48237
#        60762
#        70755
#        81464
#        87463
#        97831
#        106293
#        119716
#        130373
#        139428
#        151015
#        161873
#        170856
#        181844
#        192083
#        210432
#
# Disc length: 2995 seconds
#
# Revision: 1
# Processed by: cddbd v1.5.2PL0 Copyright (c) Steve Scherf et al.
# Submitted via: ExactAudioCopy v1.3
#
DISCID=0c0bb114
DTITLE=Various Artist - Country Outlaws
DYEAR=2013
DGENRE=Country-Outlaw
TTITLE0=Johnny Cash - Folsom Prison Blues
TTITLE1=Willie Nelson - Crazy
TTITLE2=Waylon Jennings - Don't Think Twice
TTITLE3=Waylon Jennings - Busted
TTITLE4=Willie Nelson - Mr Record Man
TTITLE5=Waylon Jennings - Nine Pound Hammer
TTITLE6=Johnny Cash - In The Jailhouse Now
TTITLE7=Willie Nelson - No Place For Me
TTITLE8=Waylon Jennings - Lorena
TTITLE9=Johnny Cash - The Rebel Johnny Yuma
TTITLE10=Willie Nelson - Three Days
TTITLE11=Waylon Jennings - Sally Was A Good Old Girl
TTITLE12=Johnny Cash - Delia's Gone
TTITLE13=Willie Nelson - Undo The Right
TTITLE14=Waylon Jennings - That's What You Get For Loving Me
TTITLE15=Johnny Cash - Lost On The Desert
TTITLE16=Willie Nelson - One Step Beyond
TTITLE17=Waylon Jennings - White Lightening
TTITLE18=Johnny Cash - The Big Battle
TTITLE19=Willie Nelson - Rainy Day Blues
EXTD=
EXTT0=
EXTT1=
EXTT2=
EXTT3=
EXTT4=
EXTT5=
EXTT6=
EXTT7=
EXTT8=
EXTT9=
EXTT10=
EXTT11=
EXTT12=
EXTT13=
EXTT14=
EXTT15=
EXTT16=
EXTT17=
EXTT18=
EXTT19=
PLAYORDER=
